<?xml version="1.0" encoding="utf-8"?>
<!-- Generator: Adobe Illustrator 17.0.1, SVG Export Plug-In . SVG Version: 6.00 Build 0)  -->
<!DOCTYPE svg PUBLIC "-//W3C//DTD SVG 1.1//EN" "http://www.w3.org/Graphics/SVG/1.1/DTD/svg11.dtd">
<svg version="1.1" id="Layer_1" xmlns="http://www.w3.org/2000/svg" xmlns:xlink="http://www.w3.org/1999/xlink" x="0px" y="0px"
	 width="185px" height="188px" viewBox="0 0 185 188" enable-background="new 0 0 185 188" xml:space="preserve">
<style type="text/css">
	.st0{fill:#225B5A;}
	.st1{enable-background:new    ;}
	.st2{fill:#4E4E4E;}
	.st3{fill:#757575;}
	.st4{fill:#FFFFFF;}
</style>
<g>
	<path class="st0" d="M48.8,20.2c-0.5-0.3-0.9-0.6-1.1-1.2c-2.3-5.8-8.5-8.7-14.4-6.8c-0.5,0.2-0.9,0.2-1.4-0.1
		C27.3,9.3,22,9.8,18,13.2c-0.4,0.4-0.8,0.6-1.4,0.6c-4.8,0.3-8.2,2.7-10.2,7.1c-0.3,0.6-0.6,1.1-1.1,1.5c-2.3,2.1-3.5,4.7-3.7,7.8
		C1.3,36.8,6.3,42.3,13,42.5c0.4,0,0.9-0.1,1.3,0.3c3.1,3.2,6.9,4.1,11.3,3.2c0.4-0.1,0.7-0.1,1,0.2c2.2,2.4,5,3.6,8.3,3.7
		c0.5,0,1,0.2,1.4,0.5c1.7,1.2,3.4,2.4,5.2,3.6c1,0.7,1.7,0.6,2.4-0.4c0.6-0.9,1.3-1.8,1.9-2.7c1.4-2,1.4-2.1-0.6-3.4
		c-0.1-0.1-0.3-0.2-0.6-0.4c1.2-0.3,2.2-0.7,3.1-1.1c1-0.5,1.9-1,2.8-1.7C58.5,37.7,57.7,25.6,48.8,20.2z M44,44.4
		c-0.6,0.2-1.3,0.2-2,0.3c-1,0.1-1.6,0.7-1.9,1.5c-0.3,0.9,0.4,1.4,1,1.8c0.4,0.3,0.9,0.6,1.3,0.9c0.3,0.2,1,0.3,0.8,0.8
		s-0.6,1-1,1.4c-0.2,0.2-0.4-0.1-0.6-0.2c-1.5-1-2.9-2-4.4-3.1c-0.6-0.4-1.1-0.6-1.8-0.6c-3,0.1-5.5-1.1-7.4-3.4
		c-0.7-0.9-1.4-1-2.5-0.7c-3.3,1.2-6.3,0.5-9-1.8C16,41,15.3,40.5,16,39.6c0.7-1,1.8-1.5,2.7-1.1c0.7,0.3,1.3,0.7,2,0.8
		c0.9,0.2,1.5-0.1,1.7-1c0.2-0.8-0.3-1.3-1.1-1.5c-1.9-0.5-2.5-1.3-2.6-3.3c0-0.8-0.4-1.4-1.2-1.4c-0.8,0-1.3,0.4-1.4,1.3
		c-0.1,0.7,0,1.3,0.3,2c0.2,0.5,0.1,0.7-0.4,0.9c-1.3,0.6-2.2,1.6-2.6,2.9c-0.2,0.6-0.5,0.7-1,0.6c-3.2-0.4-5.6-2-7-4.9
		c-1.5-3-1.3-6.1,0.6-9c0.5-0.7,1.1-1.4,1.8-1.9c1.2-1,2.8-0.9,3.8,0.3c0.2,0.2,0.3,0.4,0.4,0.6c0.5,0.6,1.2,0.8,1.9,0.3
		c0.6-0.5,0.7-1.1,0.3-1.8c-1-1.6-2.4-2.6-4.5-2.7c1.7-2.6,4-4,6.9-4.1c1.4,0,2.4-0.5,3.4-1.4c3.2-3,8.6-2.9,11.8,0.2
		c1.1,1.1,1.3,2.3,0.6,3.7c-0.5,1-0.4,1.8,0.4,2.2c0.9,0.4,1.5-0.1,1.9-0.8c1.1-1.9,1-3.7,0-5.6c3.2-1.3,7.5,0.3,9.6,3.4
		c0.2,0.3,0.4,0.6,0.5,0.9c0.5,0.8,0.7,1.6,0,2.4s-1.6,1.2-2.7,1.1c-0.2,0-0.4-0.1-0.6-0.2c-0.8-0.1-1.5,0.1-1.6,0.9
		c-0.2,0.8,0.2,1.3,1,1.6c1.5,0.5,2.2,1.6,2.1,3.2c-0.1,0.9,0.1,1.6,1.1,1.7c0.9,0.2,1.5-0.4,1.6-1.5c0.2-1.1,0-2.1-0.5-3.1
		c-0.2-0.5-0.3-0.7,0.2-1c0.4-0.3,0.9-0.6,1.1-1.1c0.5-1,1.1-0.7,1.8-0.2c4.1,3,5.7,7.1,4.9,12C52.2,40,49,43.2,44,44.4z"/>
</g>
<g class="st1">
	<path class="st2" d="M75.2,40.8H63.7V20h11.5v2.1h-9.1v6.7h8.6V31h-8.6v7.6h9.1V40.8z"/>
	<path class="st2" d="M79.8,20h5.8c2.7,0,4.7,0.4,6,1.2c1.2,0.8,1.8,2.1,1.8,3.9c0,1.2-0.3,2.2-1,3c-0.7,0.8-1.7,1.3-3,1.6v0.1
		c3.1,0.5,4.7,2.2,4.7,5c0,1.9-0.6,3.3-1.9,4.3c-1.3,1-3,1.6-5.2,1.6h-7.2V20z M82.2,28.9h4c1.7,0,2.9-0.3,3.7-0.8s1.1-1.4,1.1-2.7
		c0-1.2-0.4-2-1.2-2.5s-2.2-0.8-4-0.8h-3.5V28.9z M82.2,31v7.7h4.3c1.7,0,2.9-0.3,3.8-1c0.8-0.6,1.3-1.7,1.3-3
		c0-1.3-0.4-2.2-1.3-2.8c-0.9-0.6-2.2-0.9-3.9-0.9H82.2z"/>
	<path class="st2" d="M98.6,40.8V20h2.4v18.5h9.1v2.2H98.6z"/>
	<path class="st2" d="M133.4,40.8h-13.6v-2l5.5-5.5c1.7-1.7,2.8-2.9,3.3-3.6c0.5-0.7,0.9-1.4,1.2-2.1c0.3-0.7,0.4-1.4,0.4-2.2
		c0-1.1-0.3-2-1-2.6c-0.7-0.6-1.6-1-2.8-1c-0.9,0-1.7,0.1-2.4,0.4s-1.6,0.8-2.6,1.5l-1.2-1.6c1.9-1.6,4-2.4,6.2-2.4
		c1.9,0,3.5,0.5,4.6,1.5s1.7,2.3,1.7,4c0,1.3-0.4,2.6-1.1,3.9c-0.7,1.3-2.1,2.9-4.1,4.9l-4.5,4.4v0.1h10.6V40.8z"/>
	<path class="st2" d="M150.1,30.4c0,3.6-0.6,6.2-1.7,8c-1.1,1.8-2.9,2.6-5.2,2.6c-2.2,0-3.9-0.9-5.1-2.7s-1.7-4.5-1.7-8
		c0-3.6,0.6-6.3,1.7-8c1.1-1.7,2.8-2.6,5.1-2.6c2.2,0,4,0.9,5.1,2.7S150.1,26.9,150.1,30.4z M138.7,30.4c0,3,0.4,5.2,1.1,6.6
		c0.7,1.4,1.8,2.1,3.4,2.1c1.6,0,2.7-0.7,3.4-2.1c0.7-1.4,1.1-3.6,1.1-6.5c0-3-0.4-5.2-1.1-6.5c-0.7-1.4-1.8-2.1-3.4-2.1
		c-1.5,0-2.7,0.7-3.4,2S138.7,27.4,138.7,30.4z"/>
	<path class="st2" d="M161.6,40.8h-2.3V26c0-1.2,0-2.4,0.1-3.5c-0.2,0.2-0.4,0.4-0.7,0.6c-0.2,0.2-1.4,1.1-3.4,2.8l-1.2-1.6l5.5-4.2
		h2V40.8z"/>
	<path class="st2" d="M183.1,28.9c0,8.1-3.1,12.1-9.4,12.1c-1.1,0-2-0.1-2.6-0.3v-2c0.8,0.2,1.6,0.4,2.6,0.4c2.3,0,4-0.7,5.1-2.1
		c1.2-1.4,1.8-3.6,1.9-6.4h-0.2c-0.5,0.8-1.2,1.4-2.1,1.8c-0.9,0.4-1.8,0.6-2.9,0.6c-1.8,0-3.3-0.5-4.4-1.6
		c-1.1-1.1-1.6-2.6-1.6-4.6c0-2.2,0.6-3.9,1.8-5.1c1.2-1.2,2.8-1.9,4.8-1.9c1.4,0,2.6,0.4,3.7,1.1c1.1,0.7,1.9,1.8,2.4,3.2
		S183.1,27,183.1,28.9z M176.1,21.8c-1.4,0-2.4,0.4-3.1,1.3c-0.7,0.9-1.1,2.1-1.1,3.6c0,1.4,0.3,2.4,1,3.2c0.7,0.8,1.7,1.2,3.1,1.2
		c0.9,0,1.6-0.2,2.4-0.5c0.7-0.3,1.3-0.8,1.7-1.4c0.4-0.6,0.6-1.2,0.6-1.9c0-1-0.2-1.9-0.6-2.7c-0.4-0.8-0.9-1.5-1.6-2
		C177.8,22,177,21.8,176.1,21.8z"/>
</g>
<g>
	<path class="st3" d="M48.8,82.2c-0.5-0.3-0.9-0.6-1.1-1.2c-2.3-5.8-8.5-8.7-14.4-6.8c-0.5,0.2-0.9,0.2-1.4-0.1
		c-4.5-2.8-9.8-2.4-13.8,1.1c-0.4,0.4-0.8,0.6-1.4,0.6c-4.8,0.3-8.2,2.7-10.2,7.1c-0.3,0.6-0.6,1.1-1.1,1.5
		c-2.3,2.1-3.5,4.7-3.7,7.8c-0.4,6.6,4.7,12.1,11.3,12.3c0.4,0,0.9-0.1,1.3,0.3c3.1,3.2,6.9,4.1,11.3,3.2c0.4-0.1,0.7-0.1,1,0.2
		c2.2,2.4,5,3.6,8.3,3.7c0.5,0,1,0.2,1.4,0.5c1.7,1.2,3.4,2.4,5.2,3.6c1,0.7,1.7,0.6,2.4-0.4c0.6-0.9,1.3-1.8,1.9-2.7
		c1.4-2,1.4-2.1-0.6-3.4c-0.1-0.1-0.3-0.2-0.6-0.4c1.2-0.3,2.2-0.7,3.1-1.1c1-0.5,1.9-1,2.8-1.7C58.5,99.7,57.7,87.6,48.8,82.2z
		 M44,106.4c-0.6,0.2-1.3,0.2-2,0.3c-1,0.1-1.6,0.7-1.9,1.5c-0.3,0.9,0.4,1.4,1,1.8c0.4,0.3,0.9,0.6,1.3,0.9c0.3,0.2,1,0.3,0.8,0.8
		s-0.6,1-1,1.4c-0.2,0.2-0.4-0.1-0.6-0.2c-1.5-1-2.9-2-4.4-3.1c-0.6-0.4-1.1-0.6-1.8-0.6c-3,0.1-5.5-1.1-7.4-3.4
		c-0.7-0.9-1.4-1-2.5-0.7c-3.3,1.2-6.3,0.5-9-1.8c-0.5-0.5-1.2-0.9-0.6-1.8c0.7-1,1.8-1.5,2.7-1.1c0.7,0.3,1.3,0.7,2,0.8
		c0.9,0.2,1.5-0.1,1.7-1c0.2-0.8-0.3-1.3-1.1-1.5c-1.9-0.5-2.5-1.3-2.6-3.3c0-0.8-0.4-1.4-1.2-1.4c-0.8,0-1.3,0.4-1.4,1.3
		c-0.1,0.7,0,1.3,0.3,2c0.2,0.5,0.1,0.7-0.4,0.9c-1.3,0.6-2.2,1.6-2.6,2.9c-0.2,0.6-0.5,0.7-1,0.6c-3.2-0.4-5.6-2-7-4.9
		c-1.5-3-1.3-6.1,0.6-9c0.5-0.7,1.1-1.4,1.8-1.9c1.2-1,2.8-0.9,3.8,0.3c0.2,0.2,0.3,0.4,0.4,0.6c0.5,0.6,1.2,0.8,1.9,0.3
		c0.6-0.5,0.7-1.1,0.3-1.8c-1-1.6-2.4-2.6-4.5-2.7c1.7-2.6,4-4,6.9-4.1c1.4,0,2.4-0.5,3.4-1.4c3.2-3,8.6-2.9,11.8,0.2
		c1.1,1.1,1.3,2.3,0.6,3.7c-0.5,1-0.4,1.8,0.4,2.2c0.9,0.4,1.5-0.1,1.9-0.8c1.1-1.9,1-3.7,0-5.6c3.2-1.3,7.5,0.3,9.6,3.4
		c0.2,0.3,0.4,0.6,0.5,0.9c0.5,0.8,0.7,1.6,0,2.4s-1.6,1.2-2.7,1.1c-0.2,0-0.4-0.1-0.6-0.2c-0.8-0.1-1.5,0.1-1.6,0.9
		c-0.2,0.8,0.2,1.3,1,1.6c1.5,0.5,2.2,1.6,2.1,3.2C42.8,91,43,91.7,44,91.8c0.9,0.2,1.5-0.4,1.6-1.5c0.2-1.1,0-2.1-0.5-3.1
		c-0.2-0.5-0.3-0.7,0.2-1c0.4-0.3,0.9-0.6,1.1-1.1c0.5-1,1.1-0.7,1.8-0.2c4.1,3,5.7,7.1,4.9,12C52.2,102,49,105.2,44,106.4z"/>
</g>
<g class="st1">
	<path class="st2" d="M75.2,102.8H63.7V82h11.5v2.1h-9.1v6.7h8.6V93h-8.6v7.6h9.1V102.8z"/>
	<path class="st2" d="M79.8,82h5.8c2.7,0,4.7,0.4,6,1.2c1.2,0.8,1.8,2.1,1.8,3.9c0,1.2-0.3,2.2-1,3c-0.7,0.8-1.7,1.3-3,1.6v0.1
		c3.1,0.5,4.7,2.2,4.7,5c0,1.9-0.6,3.3-1.9,4.3c-1.3,1-3,1.6-5.2,1.6h-7.2V82z M82.2,90.9h4c1.7,0,2.9-0.3,3.7-0.8s1.1-1.4,1.1-2.7
		c0-1.2-0.4-2-1.2-2.5s-2.2-0.8-4-0.8h-3.5V90.9z M82.2,93v7.7h4.3c1.7,0,2.9-0.3,3.8-1c0.8-0.6,1.3-1.7,1.3-3
		c0-1.3-0.4-2.2-1.3-2.8c-0.9-0.6-2.2-0.9-3.9-0.9H82.2z"/>
	<path class="st2" d="M98.6,102.8V82h2.4v18.5h9.1v2.2H98.6z"/>
	<path class="st2" d="M133.4,102.8h-13.6v-2l5.5-5.5c1.7-1.7,2.8-2.9,3.3-3.6c0.5-0.7,0.9-1.4,1.2-2.1c0.3-0.7,0.4-1.4,0.4-2.2
		c0-1.1-0.3-2-1-2.6c-0.7-0.6-1.6-1-2.8-1c-0.9,0-1.7,0.1-2.4,0.4s-1.6,0.8-2.6,1.5l-1.2-1.6c1.9-1.6,4-2.4,6.2-2.4
		c1.9,0,3.5,0.5,4.6,1.5s1.7,2.3,1.7,4c0,1.3-0.4,2.6-1.1,3.9c-0.7,1.3-2.1,2.9-4.1,4.9l-4.5,4.4v0.1h10.6V102.8z"/>
	<path class="st2" d="M150.1,92.4c0,3.6-0.6,6.2-1.7,8c-1.1,1.8-2.9,2.6-5.2,2.6c-2.2,0-3.9-0.9-5.1-2.7s-1.7-4.5-1.7-7.9
		c0-3.6,0.6-6.3,1.7-8c1.1-1.7,2.8-2.6,5.1-2.6c2.2,0,4,0.9,5.1,2.7S150.1,88.9,150.1,92.4z M138.7,92.4c0,3,0.4,5.2,1.1,6.6
		c0.7,1.4,1.8,2.1,3.4,2.1c1.6,0,2.7-0.7,3.4-2.1c0.7-1.4,1.1-3.6,1.1-6.5c0-3-0.4-5.2-1.1-6.5c-0.7-1.4-1.8-2.1-3.4-2.1
		c-1.5,0-2.7,0.7-3.4,2S138.7,89.4,138.7,92.4z"/>
	<path class="st2" d="M161.6,102.8h-2.3V88c0-1.2,0-2.4,0.1-3.5c-0.2,0.2-0.4,0.4-0.7,0.6c-0.2,0.2-1.4,1.1-3.4,2.8l-1.2-1.6
		l5.5-4.2h2V102.8z"/>
	<path class="st2" d="M183.1,90.9c0,8.1-3.1,12.1-9.4,12.1c-1.1,0-2-0.1-2.6-0.3v-2c0.8,0.2,1.6,0.4,2.6,0.4c2.3,0,4-0.7,5.1-2.1
		c1.2-1.4,1.8-3.6,1.9-6.4h-0.2c-0.5,0.8-1.2,1.4-2.1,1.8c-0.9,0.4-1.8,0.6-2.9,0.6c-1.8,0-3.3-0.5-4.4-1.6
		c-1.1-1.1-1.6-2.6-1.6-4.6c0-2.2,0.6-3.9,1.8-5.1c1.2-1.2,2.8-1.9,4.8-1.9c1.4,0,2.6,0.4,3.7,1.1c1.1,0.7,1.9,1.8,2.4,3.2
		S183.1,89,183.1,90.9z M176.1,83.8c-1.4,0-2.4,0.4-3.1,1.3c-0.7,0.9-1.1,2.1-1.1,3.6c0,1.4,0.3,2.4,1,3.2c0.7,0.8,1.7,1.2,3.1,1.2
		c0.9,0,1.6-0.2,2.4-0.5c0.7-0.3,1.3-0.8,1.7-1.4c0.4-0.6,0.6-1.2,0.6-1.9c0-1-0.2-1.9-0.6-2.7c-0.4-0.8-0.9-1.5-1.6-2
		C177.8,84,177,83.8,176.1,83.8z"/>
</g>
<g>
	<path class="st4" d="M49.4,146.2c-0.5-0.3-0.9-0.6-1.1-1.2c-2.3-5.8-8.5-8.7-14.4-6.8c-0.5,0.2-0.9,0.2-1.4-0.1
		c-4.5-2.8-9.8-2.4-13.8,1.1c-0.4,0.4-0.8,0.6-1.4,0.6c-4.8,0.3-8.2,2.7-10.2,7.1c-0.3,0.6-0.6,1.1-1.1,1.5
		c-2.3,2.1-3.5,4.7-3.7,7.8c-0.4,6.6,4.7,12.1,11.3,12.3c0.4,0,0.9-0.1,1.3,0.3c3.1,3.2,6.9,4.1,11.3,3.2c0.4-0.1,0.7-0.1,1,0.2
		c2.2,2.4,5,3.6,8.3,3.7c0.5,0,1,0.2,1.4,0.5c1.7,1.2,3.4,2.4,5.2,3.6c1,0.7,1.7,0.6,2.4-0.4c0.6-0.9,1.3-1.8,1.9-2.7
		c1.4-2,1.4-2.1-0.6-3.4c-0.1-0.1-0.3-0.2-0.6-0.4c1.2-0.3,2.2-0.7,3.1-1.1c1-0.5,1.9-1,2.8-1.7C59.1,163.7,58.2,151.6,49.4,146.2z
		 M44.6,170.4c-0.6,0.2-1.3,0.2-2,0.3c-1,0.1-1.6,0.7-1.9,1.5c-0.3,0.9,0.4,1.4,1,1.8c0.4,0.3,0.9,0.6,1.3,0.9
		c0.3,0.2,1,0.3,0.8,0.8s-0.6,1-1,1.4c-0.2,0.2-0.4-0.1-0.6-0.2c-1.5-1-2.9-2-4.4-3.1c-0.6-0.4-1.1-0.6-1.8-0.6
		c-3,0.1-5.5-1.1-7.4-3.4c-0.7-0.9-1.4-1-2.5-0.7c-3.3,1.2-6.3,0.5-9-1.8c-0.5-0.5-1.2-0.9-0.6-1.8c0.7-1,1.8-1.5,2.7-1.1
		c0.7,0.3,1.3,0.7,2,0.8c0.9,0.2,1.5-0.1,1.7-1c0.2-0.8-0.3-1.3-1.1-1.5c-1.9-0.5-2.5-1.3-2.6-3.3c0-0.8-0.4-1.4-1.2-1.4
		c-0.8,0-1.3,0.4-1.4,1.3c-0.1,0.7,0,1.3,0.3,2c0.2,0.5,0.1,0.7-0.4,0.9c-1.3,0.6-2.2,1.6-2.6,2.9c-0.2,0.6-0.5,0.7-1,0.6
		c-3.2-0.4-5.6-2-7-4.9c-1.5-3-1.3-6.1,0.6-9c0.5-0.7,1.1-1.4,1.8-1.9c1.2-1,2.8-0.9,3.8,0.3c0.2,0.2,0.3,0.4,0.4,0.6
		c0.5,0.6,1.2,0.8,1.9,0.3c0.6-0.5,0.7-1.1,0.3-1.8c-1-1.6-2.4-2.6-4.5-2.7c1.7-2.6,4-4,6.9-4.1c1.4,0,2.4-0.5,3.4-1.4
		c3.2-3,8.6-2.9,11.8,0.2c1.1,1.1,1.3,2.3,0.6,3.7c-0.5,1-0.4,1.8,0.4,2.2c0.9,0.4,1.5-0.1,1.9-0.8c1.1-1.9,1-3.7,0-5.6
		c3.2-1.3,7.5,0.3,9.6,3.4c0.2,0.3,0.4,0.6,0.5,0.9c0.5,0.8,0.7,1.6,0,2.4c-0.7,0.8-1.6,1.2-2.7,1.1c-0.2,0-0.4-0.1-0.6-0.2
		c-0.8-0.1-1.5,0.1-1.6,0.9c-0.2,0.8,0.2,1.3,1,1.6c1.5,0.5,2.2,1.6,2.1,3.2c-0.1,0.9,0.1,1.6,1.1,1.7c0.9,0.2,1.5-0.4,1.6-1.5
		c0.2-1.1,0-2.1-0.5-3.1c-0.2-0.5-0.3-0.7,0.2-1c0.4-0.3,0.9-0.6,1.1-1.1c0.5-1,1.1-0.7,1.8-0.2c4.1,3,5.7,7.1,4.9,12
		C52.7,166,49.6,169.2,44.6,170.4z"/>
</g>
<g class="st1">
	<path class="st4" d="M75.8,166.8H64.3V146h11.5v2.1h-9.1v6.7h8.6v2.1h-8.6v7.6h9.1V166.8z"/>
	<path class="st4" d="M80.4,146h5.8c2.7,0,4.7,0.4,6,1.2c1.2,0.8,1.8,2.1,1.8,3.9c0,1.2-0.3,2.2-1,3c-0.7,0.8-1.7,1.3-3,1.6v0.1
		c3.1,0.5,4.7,2.2,4.7,5c0,1.9-0.6,3.3-1.9,4.3c-1.3,1-3,1.6-5.2,1.6h-7.2V146z M82.8,154.9h4c1.7,0,2.9-0.3,3.7-0.8
		s1.1-1.4,1.1-2.7c0-1.2-0.4-2-1.2-2.5s-2.2-0.8-4-0.8h-3.5V154.9z M82.8,157v7.7h4.3c1.7,0,2.9-0.3,3.8-1c0.8-0.6,1.3-1.7,1.3-3
		c0-1.3-0.4-2.2-1.3-2.8c-0.9-0.6-2.2-0.9-3.9-0.9H82.8z"/>
	<path class="st4" d="M99.2,166.8V146h2.4v18.5h9.1v2.2H99.2z"/>
	<path class="st4" d="M133.9,166.8h-13.6v-2l5.5-5.5c1.7-1.7,2.8-2.9,3.3-3.6c0.5-0.7,0.9-1.4,1.2-2.1c0.3-0.7,0.4-1.4,0.4-2.2
		c0-1.1-0.3-2-1-2.6c-0.7-0.6-1.6-1-2.8-1c-0.9,0-1.7,0.1-2.4,0.4s-1.6,0.8-2.6,1.5l-1.2-1.6c1.9-1.6,4-2.4,6.2-2.4
		c1.9,0,3.5,0.5,4.6,1.5s1.7,2.3,1.7,4c0,1.3-0.4,2.6-1.1,3.9c-0.7,1.3-2.1,2.9-4.1,4.9l-4.5,4.4v0.1h10.6V166.8z"/>
	<path class="st4" d="M150.6,156.4c0,3.6-0.6,6.2-1.7,8c-1.1,1.8-2.9,2.6-5.2,2.6c-2.2,0-3.9-0.9-5.1-2.7s-1.7-4.5-1.7-8
		c0-3.6,0.6-6.3,1.7-8c1.1-1.7,2.8-2.6,5.1-2.6c2.2,0,4,0.9,5.1,2.7S150.6,152.9,150.6,156.4z M139.3,156.4c0,3,0.4,5.2,1.1,6.6
		c0.7,1.4,1.8,2.1,3.4,2.1c1.6,0,2.7-0.7,3.4-2.1c0.7-1.4,1.1-3.6,1.1-6.5c0-3-0.4-5.2-1.1-6.5c-0.7-1.4-1.8-2.1-3.4-2.1
		c-1.5,0-2.7,0.7-3.4,2S139.3,153.4,139.3,156.4z"/>
	<path class="st4" d="M162.2,166.8h-2.3V152c0-1.2,0-2.4,0.1-3.5c-0.2,0.2-0.4,0.4-0.7,0.6c-0.2,0.2-1.4,1.1-3.4,2.8l-1.2-1.6
		l5.5-4.2h2V166.8z"/>
	<path class="st4" d="M183.7,154.9c0,8.1-3.1,12.1-9.4,12.1c-1.1,0-2-0.1-2.6-0.3v-2c0.8,0.2,1.6,0.4,2.6,0.4c2.3,0,4-0.7,5.1-2.1
		c1.2-1.4,1.8-3.6,1.9-6.4h-0.2c-0.5,0.8-1.2,1.4-2.1,1.8c-0.9,0.4-1.8,0.6-2.9,0.6c-1.8,0-3.3-0.5-4.4-1.6
		c-1.1-1.1-1.6-2.6-1.6-4.6c0-2.2,0.6-3.9,1.8-5.1c1.2-1.2,2.8-1.9,4.8-1.9c1.4,0,2.6,0.4,3.7,1.1c1.1,0.7,1.9,1.8,2.4,3.2
		S183.7,153,183.7,154.9z M176.7,147.8c-1.4,0-2.4,0.4-3.1,1.3c-0.7,0.9-1.1,2.1-1.1,3.6c0,1.4,0.3,2.4,1,3.2
		c0.7,0.8,1.7,1.2,3.1,1.2c0.9,0,1.6-0.2,2.4-0.5c0.7-0.3,1.3-0.8,1.7-1.4c0.4-0.6,0.6-1.2,0.6-1.9c0-1-0.2-1.9-0.6-2.7
		c-0.4-0.8-0.9-1.5-1.6-2C178.4,148,177.6,147.8,176.7,147.8z"/>
</g>
</svg>