<?xml version="1.0" encoding="utf-8"?>
<!-- Generator: Adobe Illustrator 17.0.1, SVG Export Plug-In . SVG Version: 6.00 Build 0)  -->
<!DOCTYPE svg PUBLIC "-//W3C//DTD SVG 1.1//EN" "http://www.w3.org/Graphics/SVG/1.1/DTD/svg11.dtd">
<svg version="1.1" id="Layer_1" xmlns="http://www.w3.org/2000/svg" xmlns:xlink="http://www.w3.org/1999/xlink" x="0px" y="0px"
	 width="185px" height="188px" viewBox="0 0 185 188" enable-background="new 0 0 185 188" xml:space="preserve">
<style type="text/css">
	.st0{fill:#225B5A;}
	.st1{fill:#4E4E4E;}
	.st2{font-family:'OpenSans-Regular';}
	.st3{font-size:29px;}
	.st4{fill:#757575;}
	.st5{fill:#FFFFFF;}
</style>
<g>
	<path class="st0" d="M48.8,20.2c-0.5-0.3-0.9-0.6-1.1-1.2c-2.3-5.8-8.5-8.7-14.4-6.8c-0.5,0.2-0.9,0.2-1.4-0.1
		C27.3,9.3,22,9.8,18,13.2c-0.4,0.4-0.8,0.6-1.4,0.6c-4.8,0.3-8.2,2.7-10.2,7.1c-0.3,0.6-0.6,1.1-1.1,1.5c-2.3,2.1-3.5,4.7-3.7,7.8
		C1.3,36.8,6.3,42.3,13,42.5c0.4,0,0.9-0.1,1.3,0.3c3.1,3.2,6.9,4.1,11.3,3.2c0.4-0.1,0.7-0.1,1,0.2c2.2,2.4,5,3.6,8.3,3.7
		c0.5,0,1,0.2,1.4,0.5c1.7,1.2,3.4,2.4,5.2,3.6c1,0.7,1.7,0.6,2.4-0.4c0.6-0.9,1.3-1.8,1.9-2.7c1.4-2,1.4-2.1-0.6-3.4
		c-0.1-0.1-0.3-0.2-0.6-0.4c1.2-0.3,2.2-0.7,3.1-1.1c1-0.5,1.9-1,2.8-1.7C58.5,37.7,57.7,25.6,48.8,20.2z M44,44.4
		c-0.6,0.2-1.3,0.2-2,0.3c-1,0.1-1.6,0.7-1.9,1.5c-0.3,0.9,0.4,1.4,1,1.8c0.4,0.3,0.9,0.6,1.3,0.9c0.3,0.2,1,0.3,0.8,0.8
		c-0.2,0.5-0.6,1-1,1.4c-0.2,0.2-0.4-0.1-0.6-0.2c-1.5-1-2.9-2-4.4-3.1c-0.6-0.4-1.1-0.6-1.8-0.6c-3,0.1-5.5-1.1-7.4-3.4
		c-0.7-0.9-1.4-1-2.5-0.7c-3.3,1.2-6.3,0.5-9-1.8C16,41,15.3,40.5,16,39.6c0.7-1,1.8-1.5,2.7-1.1c0.7,0.3,1.3,0.7,2,0.8
		c0.9,0.2,1.5-0.1,1.7-1c0.2-0.8-0.3-1.3-1.1-1.5c-1.9-0.5-2.5-1.3-2.6-3.3c0-0.8-0.4-1.4-1.2-1.4c-0.8,0-1.3,0.4-1.4,1.3
		c-0.1,0.7,0,1.3,0.3,2c0.2,0.5,0.1,0.7-0.4,0.9c-1.3,0.6-2.2,1.6-2.6,2.9c-0.2,0.6-0.5,0.7-1,0.6c-3.2-0.4-5.6-2-7-4.9
		c-1.5-3-1.3-6.1,0.6-9c0.5-0.7,1.1-1.4,1.8-1.9c1.2-1,2.8-0.9,3.8,0.3c0.2,0.2,0.3,0.4,0.4,0.6c0.5,0.6,1.2,0.8,1.9,0.3
		c0.6-0.5,0.7-1.1,0.3-1.8c-1-1.6-2.4-2.6-4.5-2.7c1.7-2.6,4-4,6.9-4.1c1.4,0,2.4-0.5,3.4-1.4c3.2-3,8.6-2.9,11.8,0.2
		c1.1,1.1,1.3,2.3,0.6,3.7c-0.5,1-0.4,1.8,0.4,2.2c0.9,0.4,1.5-0.1,1.9-0.8c1.1-1.9,1-3.7,0-5.6c3.2-1.3,7.5,0.3,9.6,3.4
		c0.2,0.3,0.4,0.6,0.5,0.9c0.5,0.8,0.7,1.6,0,2.4c-0.7,0.8-1.6,1.2-2.7,1.1c-0.2,0-0.4-0.1-0.6-0.2c-0.8-0.1-1.5,0.1-1.6,0.9
		c-0.2,0.8,0.2,1.3,1,1.6c1.5,0.5,2.2,1.6,2.1,3.2c-0.1,0.9,0.1,1.6,1.1,1.7c0.9,0.2,1.5-0.4,1.6-1.5c0.2-1.1,0-2.1-0.5-3.1
		c-0.2-0.5-0.3-0.7,0.2-1c0.4-0.3,0.9-0.6,1.1-1.1c0.5-1,1.1-0.7,1.8-0.2c4.1,3,5.7,7.1,4.9,12C52.2,40,49,43.2,44,44.4z"/>
</g>
<text transform="matrix(1 0 0 1 60.8322 40.7513)" class="st1 st2 st3">IBL 2019</text>
<g>
	<path class="st4" d="M48.8,82.2c-0.5-0.3-0.9-0.6-1.1-1.2c-2.3-5.8-8.5-8.7-14.4-6.8c-0.5,0.2-0.9,0.2-1.4-0.1
		c-4.5-2.8-9.8-2.4-13.8,1.1c-0.4,0.4-0.8,0.6-1.4,0.6c-4.8,0.3-8.2,2.7-10.2,7.1c-0.3,0.6-0.6,1.1-1.1,1.5
		c-2.3,2.1-3.5,4.7-3.7,7.8c-0.4,6.6,4.7,12.1,11.3,12.3c0.4,0,0.9-0.1,1.3,0.3c3.1,3.2,6.9,4.1,11.3,3.2c0.4-0.1,0.7-0.1,1,0.2
		c2.2,2.4,5,3.6,8.3,3.7c0.5,0,1,0.2,1.4,0.5c1.7,1.2,3.4,2.4,5.2,3.6c1,0.7,1.7,0.6,2.4-0.4c0.6-0.9,1.3-1.8,1.9-2.7
		c1.4-2,1.4-2.1-0.6-3.4c-0.1-0.1-0.3-0.2-0.6-0.4c1.2-0.3,2.2-0.7,3.1-1.1c1-0.5,1.9-1,2.8-1.7C58.5,99.7,57.7,87.6,48.8,82.2z
		 M44,106.4c-0.6,0.2-1.3,0.2-2,0.3c-1,0.1-1.6,0.7-1.9,1.5c-0.3,0.9,0.4,1.4,1,1.8c0.4,0.3,0.9,0.6,1.3,0.9c0.3,0.2,1,0.3,0.8,0.8
		c-0.2,0.5-0.6,1-1,1.4c-0.2,0.2-0.4-0.1-0.6-0.2c-1.5-1-2.9-2-4.4-3.1c-0.6-0.4-1.1-0.6-1.8-0.6c-3,0.1-5.5-1.1-7.4-3.4
		c-0.7-0.9-1.4-1-2.5-0.7c-3.3,1.2-6.3,0.5-9-1.8c-0.5-0.5-1.2-0.9-0.6-1.8c0.7-1,1.8-1.5,2.7-1.1c0.7,0.3,1.3,0.7,2,0.8
		c0.9,0.2,1.5-0.1,1.7-1c0.2-0.8-0.3-1.3-1.1-1.5c-1.9-0.5-2.5-1.3-2.6-3.3c0-0.8-0.4-1.4-1.2-1.4c-0.8,0-1.3,0.4-1.4,1.3
		c-0.1,0.7,0,1.3,0.3,2c0.2,0.5,0.1,0.7-0.4,0.9c-1.3,0.6-2.2,1.6-2.6,2.9c-0.2,0.6-0.5,0.7-1,0.6c-3.2-0.4-5.6-2-7-4.9
		c-1.5-3-1.3-6.1,0.6-9c0.5-0.7,1.1-1.4,1.8-1.9c1.2-1,2.8-0.9,3.8,0.3c0.2,0.2,0.3,0.4,0.4,0.6c0.5,0.6,1.2,0.8,1.9,0.3
		c0.6-0.5,0.7-1.1,0.3-1.8c-1-1.6-2.4-2.6-4.5-2.7c1.7-2.6,4-4,6.9-4.1c1.4,0,2.4-0.5,3.4-1.4c3.2-3,8.6-2.9,11.8,0.2
		c1.1,1.1,1.3,2.3,0.6,3.7c-0.5,1-0.4,1.8,0.4,2.2c0.9,0.4,1.5-0.1,1.9-0.8c1.1-1.9,1-3.7,0-5.6c3.2-1.3,7.5,0.3,9.6,3.4
		c0.2,0.3,0.4,0.6,0.5,0.9c0.5,0.8,0.7,1.6,0,2.4c-0.7,0.8-1.6,1.2-2.7,1.1c-0.2,0-0.4-0.1-0.6-0.2c-0.8-0.1-1.5,0.1-1.6,0.9
		c-0.2,0.8,0.2,1.3,1,1.6c1.5,0.5,2.2,1.6,2.1,3.2c-0.1,0.9,0.1,1.6,1.1,1.7c0.9,0.2,1.5-0.4,1.6-1.5c0.2-1.1,0-2.1-0.5-3.1
		c-0.2-0.5-0.3-0.7,0.2-1c0.4-0.3,0.9-0.6,1.1-1.1c0.5-1,1.1-0.7,1.8-0.2c4.1,3,5.7,7.1,4.9,12C52.2,102,49,105.2,44,106.4z"/>
</g>
<text transform="matrix(1 0 0 1 60.8322 102.7513)" class="st1 st2 st3">IBL 2019</text>
<g>
	<path class="st5" d="M49.4,146.2c-0.5-0.3-0.9-0.6-1.1-1.2c-2.3-5.8-8.5-8.7-14.4-6.8c-0.5,0.2-0.9,0.2-1.4-0.1
		c-4.5-2.8-9.8-2.4-13.8,1.1c-0.4,0.4-0.8,0.6-1.4,0.6c-4.8,0.3-8.2,2.7-10.2,7.1c-0.3,0.6-0.6,1.1-1.1,1.5
		c-2.3,2.1-3.5,4.7-3.7,7.8c-0.4,6.6,4.7,12.1,11.3,12.3c0.4,0,0.9-0.1,1.3,0.3c3.1,3.2,6.9,4.1,11.3,3.2c0.4-0.1,0.7-0.1,1,0.2
		c2.2,2.4,5,3.6,8.3,3.7c0.5,0,1,0.2,1.4,0.5c1.7,1.2,3.4,2.4,5.2,3.6c1,0.7,1.7,0.6,2.4-0.4c0.6-0.9,1.3-1.8,1.9-2.7
		c1.4-2,1.4-2.1-0.6-3.4c-0.1-0.1-0.3-0.2-0.6-0.4c1.2-0.3,2.2-0.7,3.1-1.1c1-0.5,1.9-1,2.8-1.7C59.1,163.7,58.2,151.6,49.4,146.2z
		 M44.6,170.4c-0.6,0.2-1.3,0.2-2,0.3c-1,0.1-1.6,0.7-1.9,1.5c-0.3,0.9,0.4,1.4,1,1.8c0.4,0.3,0.9,0.6,1.3,0.9
		c0.3,0.2,1,0.3,0.8,0.8c-0.2,0.5-0.6,1-1,1.4c-0.2,0.2-0.4-0.1-0.6-0.2c-1.5-1-2.9-2-4.4-3.1c-0.6-0.4-1.1-0.6-1.8-0.6
		c-3,0.1-5.5-1.1-7.4-3.4c-0.7-0.9-1.4-1-2.5-0.7c-3.3,1.2-6.3,0.5-9-1.8c-0.5-0.5-1.2-0.9-0.6-1.8c0.7-1,1.8-1.5,2.7-1.1
		c0.7,0.3,1.3,0.7,2,0.8c0.9,0.2,1.5-0.1,1.7-1c0.2-0.8-0.3-1.3-1.1-1.5c-1.9-0.5-2.5-1.3-2.6-3.3c0-0.8-0.4-1.4-1.2-1.4
		c-0.8,0-1.3,0.4-1.4,1.3c-0.1,0.7,0,1.3,0.3,2c0.2,0.5,0.1,0.7-0.4,0.9c-1.3,0.6-2.2,1.6-2.6,2.9c-0.2,0.6-0.5,0.7-1,0.6
		c-3.2-0.4-5.6-2-7-4.9c-1.5-3-1.3-6.1,0.6-9c0.5-0.7,1.1-1.4,1.8-1.9c1.2-1,2.8-0.9,3.8,0.3c0.2,0.2,0.3,0.4,0.4,0.6
		c0.5,0.6,1.2,0.8,1.9,0.3c0.6-0.5,0.7-1.1,0.3-1.8c-1-1.6-2.4-2.6-4.5-2.7c1.7-2.6,4-4,6.9-4.1c1.4,0,2.4-0.5,3.4-1.4
		c3.2-3,8.6-2.9,11.8,0.2c1.1,1.1,1.3,2.3,0.6,3.7c-0.5,1-0.4,1.8,0.4,2.2c0.9,0.4,1.5-0.1,1.9-0.8c1.1-1.9,1-3.7,0-5.6
		c3.2-1.3,7.5,0.3,9.6,3.4c0.2,0.3,0.4,0.6,0.5,0.9c0.5,0.8,0.7,1.6,0,2.4c-0.7,0.8-1.6,1.2-2.7,1.1c-0.2,0-0.4-0.1-0.6-0.2
		c-0.8-0.1-1.5,0.1-1.6,0.9c-0.2,0.8,0.2,1.3,1,1.6c1.5,0.5,2.2,1.6,2.1,3.2c-0.1,0.9,0.1,1.6,1.1,1.7c0.9,0.2,1.5-0.4,1.6-1.5
		c0.2-1.1,0-2.1-0.5-3.1c-0.2-0.5-0.3-0.7,0.2-1c0.4-0.3,0.9-0.6,1.1-1.1c0.5-1,1.1-0.7,1.8-0.2c4.1,3,5.7,7.1,4.9,12
		C52.7,166,49.6,169.2,44.6,170.4z"/>
</g>
<text transform="matrix(1 0 0 1 61.4115 166.7513)" class="st5 st2 st3">IBL 2019</text>
</svg>
